<svg xmlns="http://www.w3.org/2000/svg" viewBox="0 0 1640 236" font-family="'Pretendard','Apple SD Gothic Neo','Malgun Gothic',sans-serif" role="img" aria-label="Supply Chain 자동화">
<defs><marker id="ah" viewBox="0 0 10 10" refX="9" refY="5" markerWidth="7" markerHeight="7" orient="auto-start-reverse"><path d="M0,0 L10,5 L0,10 z" fill="#46557A"/></marker></defs>
<text x="26" y="22" font-family="'JetBrains Mono','SF Mono',monospace" font-size="12" letter-spacing="2" fill="#8B99B3">SUPPLY CHAIN 자동화</text>
<path d="M198,89.0 L262,89.0" fill="none" stroke="#46557A" stroke-width="1.6" marker-end="url(#ah)"/>
<path d="M434,89.0 L498,89.0" fill="none" stroke="#46557A" stroke-width="1.6" marker-end="url(#ah)"/>
<path d="M434,89.0 C466.0,89.0 466.0,181.0 498,181.0" fill="none" stroke="#46557A" stroke-width="1.6" marker-end="url(#ah)"/>
<path d="M670,89.0 L734,89.0" fill="none" stroke="#46557A" stroke-width="1.6" marker-end="url(#ah)"/>
<path d="M670,181.0 C702.0,181.0 702.0,89.0 734,89.0" fill="none" stroke="#46557A" stroke-width="1.6" marker-end="url(#ah)"/>
<path d="M906,89.0 L970,89.0" fill="none" stroke="#46557A" stroke-width="1.6" marker-end="url(#ah)"/>
<path d="M1142,89.0 L1206,89.0" fill="none" stroke="#46557A" stroke-width="1.6" marker-end="url(#ah)"/>
<path d="M1378,89.0 L1442,89.0" fill="none" stroke="#46557A" stroke-width="1.6" marker-end="url(#ah)"/>
<rect x="26" y="60" width="172" height="58" rx="12" fill="#151D2E" stroke="#2C3A55" stroke-width="1.4"/>
<text x="112.0" y="85.0" text-anchor="middle" font-size="13" font-weight="600" fill="#E8EDF6">메일 주문 확인</text>
<text x="112.0" y="101.0" text-anchor="middle" font-size="10.5" fill="#8B99B3">수신 트리거</text>
<rect x="262" y="60" width="172" height="58" rx="12" fill="#151D2E" stroke="#2C3A55" stroke-width="1.4"/>
<text x="348.0" y="85.0" text-anchor="middle" font-size="13" font-weight="600" fill="#E8EDF6">B2B / B2C</text>
<text x="348.0" y="101.0" text-anchor="middle" font-size="13" font-weight="600" fill="#E8EDF6">분기</text>
<rect x="498" y="60" width="172" height="58" rx="12" fill="#151D2E" stroke="#2C3A55" stroke-width="1.4"/>
<text x="584.0" y="85.0" text-anchor="middle" font-size="13" font-weight="600" fill="#E8EDF6">B2B</text>
<text x="584.0" y="101.0" text-anchor="middle" font-size="10.5" fill="#8B99B3">Shopify·Amazon SKU·수량</text>
<rect x="498" y="152" width="172" height="58" rx="12" fill="#151D2E" stroke="#2C3A55" stroke-width="1.4"/>
<text x="584.0" y="177.0" text-anchor="middle" font-size="13" font-weight="600" fill="#E8EDF6">B2C</text>
<text x="584.0" y="193.0" text-anchor="middle" font-size="10.5" fill="#8B99B3">FedEx 고객정보</text>
<rect x="734" y="60" width="172" height="58" rx="12" fill="#151D2E" stroke="#2C3A55" stroke-width="1.4"/>
<text x="820.0" y="85.0" text-anchor="middle" font-size="13" font-weight="600" fill="#E8EDF6">플랫폼</text>
<text x="820.0" y="101.0" text-anchor="middle" font-size="13" font-weight="600" fill="#E8EDF6">클릭·입력</text>
<rect x="970" y="60" width="172" height="58" rx="12" fill="#151D2E" stroke="#2C3A55" stroke-width="1.4"/>
<text x="1056.0" y="85.0" text-anchor="middle" font-size="13" font-weight="600" fill="#E8EDF6">사내 ERP</text>
<text x="1056.0" y="101.0" text-anchor="middle" font-size="13" font-weight="600" fill="#E8EDF6">조회·입력</text>
<rect x="1206" y="60" width="172" height="58" rx="6" fill="#151D2E" stroke="#F0B35C" stroke-width="1.4"/>
<line x1="1206" y1="70" x2="1378" y2="70" stroke="#F0B35C" stroke-width="1" opacity="0.55"/>
<text x="1292.0" y="93.0" text-anchor="middle" font-size="13" font-weight="600" fill="#E8EDF6">엑셀 정리·분석</text>
<rect x="1442" y="60" width="172" height="58" rx="12" fill="#151D2E" stroke="#7C9CF5" stroke-width="1.8"/>
<text x="1528.0" y="85.0" text-anchor="middle" font-size="13" font-weight="600" fill="#C3D2FF">결과 리포트</text>
<text x="1528.0" y="101.0" text-anchor="middle" font-size="13" font-weight="600" fill="#C3D2FF">이메일 발송</text>
</svg>