<svg xmlns="http://www.w3.org/2000/svg" viewBox="0 0 1168 236" font-family="'Pretendard','Apple SD Gothic Neo','Malgun Gothic',sans-serif" role="img" aria-label="EST-MoE 제안 아키텍처">
<defs><marker id="ah" viewBox="0 0 10 10" refX="9" refY="5" markerWidth="7" markerHeight="7" orient="auto-start-reverse"><path d="M0,0 L10,5 L0,10 z" fill="#46557A"/></marker></defs>
<text x="26" y="22" font-family="'JetBrains Mono','SF Mono',monospace" font-size="12" letter-spacing="2" fill="#8B99B3">EST-MOE 제안 아키텍처</text>
<path d="M198,89.0 L262,89.0" fill="none" stroke="#46557A" stroke-width="1.6" marker-end="url(#ah)"/>
<path d="M198,181.0 C230.0,181.0 230.0,89.0 262,89.0" fill="none" stroke="#46557A" stroke-width="1.6" marker-end="url(#ah)"/>
<path d="M434,89.0 L498,89.0" fill="none" stroke="#46557A" stroke-width="1.6" marker-end="url(#ah)"/>
<path d="M670,89.0 L734,89.0" fill="none" stroke="#46557A" stroke-width="1.6" marker-end="url(#ah)"/>
<path d="M906,89.0 L970,89.0" fill="none" stroke="#46557A" stroke-width="1.6" marker-end="url(#ah)"/>
<path d="M584.0,152 L584.0,118" fill="none" stroke="#46557A" stroke-width="1.6" marker-end="url(#ah)" stroke-dasharray="5 4"/>
<text x="584.0" y="128.0" text-anchor="middle" font-size="11" fill="#8B99B3">학습 신호</text>
<path d="M670,181.0 C820.0,181.0 820.0,89.0 970,89.0" fill="none" stroke="#46557A" stroke-width="1.6" marker-end="url(#ah)" stroke-dasharray="5 4"/>
<rect x="26" y="60" width="172" height="58" rx="12" fill="#151D2E" stroke="#2C3A55" stroke-width="1.4"/>
<text x="112.0" y="93.0" text-anchor="middle" font-size="13" font-weight="600" fill="#E8EDF6">시계열 입력</text>
<rect x="26" y="152" width="172" height="58" rx="12" fill="#151D2E" stroke="#2C3A55" stroke-width="1.4"/>
<text x="112.0" y="169.0" text-anchor="middle" font-size="13" font-weight="600" fill="#E8EDF6">외부 이벤트</text>
<text x="112.0" y="185.0" text-anchor="middle" font-size="13" font-weight="600" fill="#E8EDF6">컨텍스트</text>
<text x="112.0" y="201.0" text-anchor="middle" font-size="10.5" fill="#8B99B3">경제 충격·재난 등</text>
<rect x="262" y="60" width="172" height="58" rx="12" fill="#151D2E" stroke="#2C3A55" stroke-width="1.4"/>
<text x="348.0" y="85.0" text-anchor="middle" font-size="13" font-weight="600" fill="#E8EDF6">Contextual</text>
<text x="348.0" y="101.0" text-anchor="middle" font-size="13" font-weight="600" fill="#E8EDF6">Encoding</text>
<rect x="498" y="60" width="172" height="58" rx="12" fill="#151D2E" stroke="#2C3A55" stroke-width="1.4"/>
<text x="584.0" y="85.0" text-anchor="middle" font-size="13" font-weight="600" fill="#E8EDF6">Contextual</text>
<text x="584.0" y="101.0" text-anchor="middle" font-size="13" font-weight="600" fill="#E8EDF6">Gating</text>
<rect x="734" y="60" width="172" height="58" rx="12" fill="#151D2E" stroke="#2C3A55" stroke-width="1.4"/>
<text x="820.0" y="85.0" text-anchor="middle" font-size="12" font-weight="600" fill="#E8EDF6">Dynamic Routing</text>
<text x="820.0" y="101.0" text-anchor="middle" font-size="10.5" fill="#8B99B3">MoE Experts</text>
<rect x="970" y="60" width="172" height="58" rx="12" fill="#151D2E" stroke="#7C9CF5" stroke-width="1.8"/>
<text x="1056.0" y="85.0" text-anchor="middle" font-size="12" font-weight="600" fill="#C3D2FF">Multi-Resolution</text>
<text x="1056.0" y="101.0" text-anchor="middle" font-size="12" font-weight="600" fill="#C3D2FF">Forecasting</text>
<rect x="498" y="152" width="172" height="58" rx="12" fill="#151D2E" stroke="#F0B35C" stroke-width="1.8"/>
<text x="584.0" y="177.0" text-anchor="middle" font-size="12" font-weight="600" fill="#FFD9A0">Contextual</text>
<text x="584.0" y="193.0" text-anchor="middle" font-size="12" font-weight="600" fill="#FFD9A0">Sensitivity Loss</text>
</svg>