<svg xmlns="http://www.w3.org/2000/svg" viewBox="0 0 1168 236" font-family="'Pretendard','Apple SD Gothic Neo','Malgun Gothic',sans-serif" role="img" aria-label="CookLens 하이브리드 파이프라인">
<defs><marker id="ah" viewBox="0 0 10 10" refX="9" refY="5" markerWidth="7" markerHeight="7" orient="auto-start-reverse"><path d="M0,0 L10,5 L0,10 z" fill="#46557A"/></marker></defs>
<text x="26" y="22" font-family="'JetBrains Mono','SF Mono',monospace" font-size="12" letter-spacing="2" fill="#8B99B3">COOKLENS 하이브리드 파이프라인</text>
<path d="M198,89.0 L262,89.0" fill="none" stroke="#46557A" stroke-width="1.6" marker-end="url(#ah)"/>
<path d="M434,89.0 L498,89.0" fill="none" stroke="#46557A" stroke-width="1.6" marker-end="url(#ah)"/>
<path d="M670,89.0 L734,89.0" fill="none" stroke="#46557A" stroke-width="1.6" marker-end="url(#ah)"/>
<path d="M906,89.0 L970,89.0" fill="none" stroke="#46557A" stroke-width="1.6" marker-end="url(#ah)"/>
<text x="938.0" y="82.0" text-anchor="middle" font-size="11" fill="#8B99B3">발견</text>
<path d="M906,89.0 C938.0,89.0 938.0,181.0 970,181.0" fill="none" stroke="#46557A" stroke-width="1.6" marker-end="url(#ah)"/>
<text x="938.0" y="128.0" text-anchor="middle" font-size="11" fill="#8B99B3">미발견</text>
<path d="M970,181.0 L906,181.0" fill="none" stroke="#46557A" stroke-width="1.6" marker-end="url(#ah)"/>
<path d="M820.0,152 L820.0,118" fill="none" stroke="#46557A" stroke-width="1.6" marker-end="url(#ah)" stroke-dasharray="5 4"/>
<rect x="26" y="60" width="172" height="58" rx="12" fill="#151D2E" stroke="#2C3A55" stroke-width="1.4"/>
<text x="112.0" y="93.0" text-anchor="middle" font-size="13" font-weight="600" fill="#E8EDF6">재료 사진 업로드</text>
<rect x="262" y="60" width="172" height="58" rx="12" fill="#151D2E" stroke="#2C3A55" stroke-width="1.4"/>
<text x="348.0" y="77.0" text-anchor="middle" font-size="13" font-weight="600" fill="#E8EDF6">Gemma Vision</text>
<text x="348.0" y="93.0" text-anchor="middle" font-size="13" font-weight="600" fill="#E8EDF6">재료 인식</text>
<text x="348.0" y="109.0" text-anchor="middle" font-size="10.5" fill="#8B99B3">YOLO에서 전환</text>
<rect x="498" y="60" width="172" height="58" rx="12" fill="#151D2E" stroke="#2C3A55" stroke-width="1.4"/>
<text x="584.0" y="85.0" text-anchor="middle" font-size="13" font-weight="600" fill="#E8EDF6">사용자 보정</text>
<text x="584.0" y="101.0" text-anchor="middle" font-size="10.5" fill="#8B99B3">Human-in-the-loop</text>
<rect x="734" y="60" width="172" height="58" rx="6" fill="#151D2E" stroke="#F0B35C" stroke-width="1.4"/>
<line x1="734" y1="70" x2="906" y2="70" stroke="#F0B35C" stroke-width="1" opacity="0.55"/>
<text x="820.0" y="93.0" text-anchor="middle" font-size="13" font-weight="600" fill="#E8EDF6">레시피 DB 검색</text>
<rect x="970" y="60" width="172" height="58" rx="12" fill="#151D2E" stroke="#7C9CF5" stroke-width="1.8"/>
<text x="1056.0" y="93.0" text-anchor="middle" font-size="13" font-weight="600" fill="#C3D2FF">레시피 추천</text>
<rect x="970" y="152" width="172" height="58" rx="12" fill="#151D2E" stroke="#2C3A55" stroke-width="1.4"/>
<text x="1056.0" y="185.0" text-anchor="middle" font-size="13" font-weight="600" fill="#E8EDF6">GPT 레시피 생성</text>
<rect x="734" y="152" width="172" height="58" rx="6" fill="#151D2E" stroke="#F0B35C" stroke-width="1.4"/>
<line x1="734" y1="162" x2="906" y2="162" stroke="#F0B35C" stroke-width="1" opacity="0.55"/>
<text x="820.0" y="177.0" text-anchor="middle" font-size="13" font-weight="600" fill="#E8EDF6">저장 시 DB 축적</text>
<text x="820.0" y="193.0" text-anchor="middle" font-size="10.5" fill="#8B99B3">self-expanding</text>
</svg>