<svg xmlns="http://www.w3.org/2000/svg" viewBox="0 0 1168 236" font-family="'Pretendard','Apple SD Gothic Neo','Malgun Gothic',sans-serif" role="img" aria-label="학업 이탈 위험 — 2단 모델">
<defs><marker id="ah" viewBox="0 0 10 10" refX="9" refY="5" markerWidth="7" markerHeight="7" orient="auto-start-reverse"><path d="M0,0 L10,5 L0,10 z" fill="#46557A"/></marker></defs>
<text x="26" y="22" font-family="'JetBrains Mono','SF Mono',monospace" font-size="12" letter-spacing="2" fill="#8B99B3">학업 이탈 위험 — 2단 모델</text>
<path d="M198,89.0 L262,89.0" fill="none" stroke="#46557A" stroke-width="1.6" marker-end="url(#ah)"/>
<path d="M198,181.0 C230.0,181.0 230.0,89.0 262,89.0" fill="none" stroke="#46557A" stroke-width="1.6" marker-end="url(#ah)"/>
<path d="M434,89.0 L498,89.0" fill="none" stroke="#46557A" stroke-width="1.6" marker-end="url(#ah)"/>
<path d="M670,89.0 L734,89.0" fill="none" stroke="#46557A" stroke-width="1.6" marker-end="url(#ah)"/>
<path d="M906,89.0 L970,89.0" fill="none" stroke="#46557A" stroke-width="1.6" marker-end="url(#ah)"/>
<rect x="26" y="60" width="172" height="58" rx="6" fill="#151D2E" stroke="#F0B35C" stroke-width="1.4"/>
<line x1="26" y1="70" x2="198" y2="70" stroke="#F0B35C" stroke-width="1" opacity="0.55"/>
<text x="112.0" y="77.0" text-anchor="middle" font-size="13" font-weight="600" fill="#E8EDF6">인종별 CDR</text>
<text x="112.0" y="93.0" text-anchor="middle" font-size="13" font-weight="600" fill="#E8EDF6">25년치</text>
<text x="112.0" y="109.0" text-anchor="middle" font-size="10.5" fill="#8B99B3">1999–2024 코호트</text>
<rect x="26" y="152" width="172" height="58" rx="12" fill="#151D2E" stroke="#2C3A55" stroke-width="1.4"/>
<text x="112.0" y="177.0" text-anchor="middle" font-size="13" font-weight="600" fill="#E8EDF6">텍스트 데이터</text>
<text x="112.0" y="193.0" text-anchor="middle" font-size="10.5" fill="#8B99B3">정규화·감성 분석</text>
<rect x="262" y="60" width="172" height="58" rx="12" fill="#151D2E" stroke="#2C3A55" stroke-width="1.4"/>
<text x="348.0" y="85.0" text-anchor="middle" font-size="13" font-weight="600" fill="#E8EDF6">표준화·전처리</text>
<text x="348.0" y="101.0" text-anchor="middle" font-size="10.5" fill="#8B99B3">4년/5년 코호트 구조</text>
<rect x="498" y="60" width="172" height="58" rx="12" fill="#151D2E" stroke="#2C3A55" stroke-width="1.4"/>
<text x="584.0" y="85.0" text-anchor="middle" font-size="13" font-weight="600" fill="#E8EDF6">① 분류 모델</text>
<text x="584.0" y="101.0" text-anchor="middle" font-size="10.5" fill="#8B99B3">위험 학생 식별 · CV 검증</text>
<rect x="734" y="60" width="172" height="58" rx="12" fill="#151D2E" stroke="#2C3A55" stroke-width="1.4"/>
<text x="820.0" y="85.0" text-anchor="middle" font-size="13" font-weight="600" fill="#E8EDF6">② 추세 모델</text>
<text x="820.0" y="101.0" text-anchor="middle" font-size="10.5" fill="#8B99B3">향후 위험 예측</text>
<rect x="970" y="60" width="172" height="58" rx="12" fill="#151D2E" stroke="#7C9CF5" stroke-width="1.8"/>
<text x="1056.0" y="85.0" text-anchor="middle" font-size="13" font-weight="600" fill="#C3D2FF">Secure 대시보드</text>
<text x="1056.0" y="101.0" text-anchor="middle" font-size="10.5" fill="#8B99B3">Streamlit·Tableau</text>
</svg>