<svg xmlns="http://www.w3.org/2000/svg" viewBox="0 0 1168 236" font-family="'Pretendard','Apple SD Gothic Neo','Malgun Gothic',sans-serif" role="img" aria-label="메달리온 스트리밍 파이프라인">
<defs><marker id="ah" viewBox="0 0 10 10" refX="9" refY="5" markerWidth="7" markerHeight="7" orient="auto-start-reverse"><path d="M0,0 L10,5 L0,10 z" fill="#46557A"/></marker></defs>
<text x="26" y="22" font-family="'JetBrains Mono','SF Mono',monospace" font-size="12" letter-spacing="2" fill="#8B99B3">메달리온 스트리밍 파이프라인</text>
<path d="M198,89.0 L262,89.0" fill="none" stroke="#46557A" stroke-width="1.6" marker-end="url(#ah)"/>
<path d="M434,89.0 L498,89.0" fill="none" stroke="#46557A" stroke-width="1.6" marker-end="url(#ah)"/>
<path d="M670,89.0 L734,89.0" fill="none" stroke="#46557A" stroke-width="1.6" marker-end="url(#ah)"/>
<path d="M906,89.0 L970,89.0" fill="none" stroke="#46557A" stroke-width="1.6" marker-end="url(#ah)"/>
<path d="M670,181.0 C702.0,181.0 702.0,89.0 734,89.0" fill="none" stroke="#46557A" stroke-width="1.6" marker-end="url(#ah)"/>
<path d="M820.0,118 L820.0,152" fill="none" stroke="#46557A" stroke-width="1.6" marker-end="url(#ah)" stroke-dasharray="5 4"/>
<rect x="26" y="60" width="172" height="58" rx="12" fill="#151D2E" stroke="#2C3A55" stroke-width="1.4"/>
<text x="112.0" y="85.0" text-anchor="middle" font-size="13" font-weight="600" fill="#E8EDF6">트윗 JSON 스트림</text>
<text x="112.0" y="101.0" text-anchor="middle" font-size="10.5" fill="#8B99B3">Autoloader (cloudFiles)</text>
<rect x="262" y="60" width="172" height="58" rx="6" fill="#151D2E" stroke="#F0B35C" stroke-width="1.4"/>
<line x1="262" y1="70" x2="434" y2="70" stroke="#F0B35C" stroke-width="1" opacity="0.55"/>
<text x="348.0" y="85.0" text-anchor="middle" font-size="13" font-weight="600" fill="#E8EDF6">Bronze</text>
<text x="348.0" y="101.0" text-anchor="middle" font-size="10.5" fill="#8B99B3">원본 적재</text>
<rect x="498" y="60" width="172" height="58" rx="6" fill="#151D2E" stroke="#F0B35C" stroke-width="1.4"/>
<line x1="498" y1="70" x2="670" y2="70" stroke="#F0B35C" stroke-width="1" opacity="0.55"/>
<text x="584.0" y="85.0" text-anchor="middle" font-size="13" font-weight="600" fill="#E8EDF6">Silver</text>
<text x="584.0" y="101.0" text-anchor="middle" font-size="10.5" fill="#8B99B3">타임스탬프·멘션 정제</text>
<rect x="734" y="60" width="172" height="58" rx="6" fill="#151D2E" stroke="#F0B35C" stroke-width="1.4"/>
<line x1="734" y1="70" x2="906" y2="70" stroke="#F0B35C" stroke-width="1" opacity="0.55"/>
<text x="820.0" y="85.0" text-anchor="middle" font-size="13" font-weight="600" fill="#E8EDF6">Gold</text>
<text x="820.0" y="101.0" text-anchor="middle" font-size="10.5" fill="#8B99B3">감성 추론 결과</text>
<rect x="970" y="60" width="172" height="58" rx="12" fill="#151D2E" stroke="#7C9CF5" stroke-width="1.8"/>
<text x="1056.0" y="85.0" text-anchor="middle" font-size="13" font-weight="600" fill="#C3D2FF">멘션별 집계</text>
<text x="1056.0" y="101.0" text-anchor="middle" font-size="10.5" fill="#8B99B3">Top 20 pos/neg</text>
<rect x="498" y="152" width="172" height="58" rx="12" fill="#151D2E" stroke="#2C3A55" stroke-width="1.4"/>
<text x="584.0" y="177.0" text-anchor="middle" font-size="13" font-weight="600" fill="#E8EDF6">HF Transformer</text>
<text x="584.0" y="193.0" text-anchor="middle" font-size="10.5" fill="#8B99B3">spark_udf 분산 추론</text>
<rect x="734" y="152" width="172" height="58" rx="12" fill="#151D2E" stroke="#2C3A55" stroke-width="1.4"/>
<text x="820.0" y="177.0" text-anchor="middle" font-size="13" font-weight="600" fill="#E8EDF6">MLflow 추적</text>
<text x="820.0" y="193.0" text-anchor="middle" font-size="10.5" fill="#8B99B3">지표·버전 자동 기록</text>
</svg>