<svg xmlns="http://www.w3.org/2000/svg" viewBox="0 0 720 620" font-family="'Pretendard','Apple SD Gothic Neo',sans-serif" role="img" aria-label="주간 브리핑 산출물 구조 목업 (더미 콘텐츠)">
  <text x="26" y="24" font-family="'JetBrains Mono',monospace" font-size="12" letter-spacing="2" fill="#8B99B3">주간 브리핑 정보 구조 (더미 콘텐츠)</text>
  <!-- 이메일 프레임 -->
  <rect x="26" y="40" width="668" height="556" rx="14" fill="#10182A" stroke="#2C3A55" stroke-width="1.5"/>
  <rect x="26" y="40" width="668" height="52" rx="14" fill="#151D2E"/>
  <rect x="26" y="72" width="668" height="20" fill="#151D2E"/>
  <text x="50" y="72" font-size="14" font-weight="700" fill="#E8EDF6">주간 지정학 브리핑 — Outlook 호환 HTML</text>
  <!-- ① TOP ISSUE -->
  <rect x="50" y="110" width="620" height="96" rx="10" fill="#151D2E" stroke="#7C9CF5" stroke-width="1.4"/>
  <text x="66" y="136" font-size="12" font-family="'JetBrains Mono',monospace" letter-spacing="2" fill="#7C9CF5">① TOP ISSUE</text>
  <g fill="#2C3A55">
    <rect x="66" y="150" width="480" height="10" rx="5"/>
    <rect x="66" y="168" width="560" height="9" rx="4.5"/>
    <rect x="66" y="184" width="520" height="9" rx="4.5"/>
  </g>
  <!-- ② 한국 산업별 임팩트 테이블 -->
  <rect x="50" y="222" width="620" height="140" rx="10" fill="#151D2E" stroke="#2C3A55"/>
  <text x="66" y="248" font-size="12" font-family="'JetBrains Mono',monospace" letter-spacing="2" fill="#F0B35C">② 한국 산업별 임팩트</text>
  <g stroke="#2C3A55" stroke-width="1">
    <line x1="66" y1="262" x2="654" y2="262"/>
    <line x1="66" y1="292" x2="654" y2="292"/>
    <line x1="66" y1="322" x2="654" y2="322"/>
    <line x1="210" y1="262" x2="210" y2="348"/>
    <line x1="430" y1="262" x2="430" y2="348"/>
  </g>
  <g font-size="11" fill="#8B99B3">
    <text x="78" y="282">반도체</text><text x="78" y="312">에너지</text><text x="78" y="342">방산</text>
  </g>
  <g fill="#2C3A55">
    <rect x="222" y="274" width="180" height="9" rx="4.5"/><rect x="442" y="274" width="160" height="9" rx="4.5"/>
    <rect x="222" y="304" width="160" height="9" rx="4.5"/><rect x="442" y="304" width="180" height="9" rx="4.5"/>
    <rect x="222" y="334" width="170" height="9" rx="4.5"/><rect x="442" y="334" width="140" height="9" rx="4.5"/>
  </g>
  <!-- ③ 실행 체크리스트 -->
  <rect x="50" y="378" width="620" height="96" rx="10" fill="#151D2E" stroke="#2C3A55"/>
  <text x="66" y="404" font-size="12" font-family="'JetBrains Mono',monospace" letter-spacing="2" fill="#8B99B3">③ 실행 체크리스트</text>
  <g>
    <rect x="66" y="416" width="13" height="13" rx="3" fill="none" stroke="#7C9CF5" stroke-width="1.4"/>
    <path d="M69 422 l3 3 l5 -6" stroke="#7C9CF5" stroke-width="1.6" fill="none"/>
    <rect x="88" y="418" width="360" height="9" rx="4.5" fill="#2C3A55"/>
    <rect x="66" y="440" width="13" height="13" rx="3" fill="none" stroke="#2C3A55" stroke-width="1.4"/>
    <rect x="88" y="442" width="300" height="9" rx="4.5" fill="#2C3A55"/>
  </g>
  <!-- ④ 지역별 브리프 -->
  <rect x="50" y="490" width="300" height="84" rx="10" fill="#151D2E" stroke="#2C3A55"/>
  <text x="66" y="516" font-size="12" font-family="'JetBrains Mono',monospace" letter-spacing="2" fill="#8B99B3">④ 지역별 브리프</text>
  <g fill="#2C3A55">
    <rect x="66" y="530" width="240" height="9" rx="4.5"/>
    <rect x="66" y="548" width="200" height="9" rx="4.5"/>
  </g>
  <!-- 신뢰 장치 -->
  <rect x="366" y="490" width="304" height="84" rx="10" fill="#10182A" stroke="#F0B35C" stroke-width="1.2" stroke-dasharray="5 4"/>
  <text x="382" y="514" font-size="11.5" font-weight="700" fill="#FFD9A0">신뢰 장치</text>
  <g font-size="10.5" fill="#8B99B3">
    <text x="382" y="532">· 전 주장에 원문 PDF 링크 병기</text>
    <text x="382" y="548">· 핵심 인용 원문+번역 병기 · 확률 전망 보존</text>
    <text x="382" y="564">· AI 활용 고지 포함</text>
  </g>
</svg>
